<?xml version="1.0" encoding="UTF-8" standalone="no"?>
<!-- Created with Inkscape (http://www.inkscape.org/) -->

<svg
   width="200mm"
   height="200mm"
   viewBox="0 0 200 200"
   version="1.1"
   id="svg5"
   inkscape:version="1.2.2 (b0a8486541, 2022-12-01)"
   sodipodi:docname="archive.svg"
   inkscape:export-filename="archive.png"
   inkscape:export-xdpi="96"
   inkscape:export-ydpi="96"
   xmlns:inkscape="http://www.inkscape.org/namespaces/inkscape"
   xmlns:sodipodi="http://sodipodi.sourceforge.net/DTD/sodipodi-0.dtd"
   xmlns="http://www.w3.org/2000/svg"
   xmlns:svg="http://www.w3.org/2000/svg">
  <sodipodi:namedview
     id="namedview7"
     pagecolor="#505050"
     bordercolor="#eeeeee"
     borderopacity="1"
     inkscape:showpageshadow="0"
     inkscape:pageopacity="0"
     inkscape:pagecheckerboard="0"
     inkscape:deskcolor="#505050"
     inkscape:document-units="mm"
     showgrid="false"
     inkscape:zoom="0.77593294"
     inkscape:cx="351.83453"
     inkscape:cy="266.13125"
     inkscape:window-width="946"
     inkscape:window-height="1060"
     inkscape:window-x="963"
     inkscape:window-y="9"
     inkscape:window-maximized="1"
     inkscape:current-layer="layer1" />
  <defs
     id="defs2">
    <inkscape:path-effect
       effect="fillet_chamfer"
       id="path-effect36766"
       is_visible="true"
       lpeversion="1"
       nodesatellites_param="F,0,0,1,0,6.6145833,0,1 @ F,0,0,1,0,6.6145833,0,1 @ F,0,0,1,0,6.6145833,0,1 @ F,0,0,1,0,6.6145833,0,1 | F,0,0,1,0,6.6145833,0,1 @ F,0,0,1,0,6.6145833,0,1 @ F,0,0,1,0,6.6145833,0,1 @ F,0,0,1,0,6.6145833,0,1 | F,0,0,1,0,6.6145833,0,1 @ F,0,0,1,0,6.6145833,0,1 @ F,0,0,1,0,6.6145833,0,1 @ F,0,0,1,0,6.6145833,0,1 | F,0,0,1,0,6.6145833,0,1 @ F,0,0,1,0,6.6145833,0,1 @ F,0,0,1,0,6.6145833,0,1 @ F,0,0,1,0,6.6145833,0,1 | F,0,0,1,0,6.6145833,0,1 @ F,0,0,1,0,6.6145833,0,1 @ F,0,0,1,0,6.6145833,0,1 @ F,0,0,1,0,6.6145833,0,1 | F,0,0,1,0,6.6145833,0,1 @ F,0,0,1,0,6.6145833,0,1 @ F,0,0,1,0,6.6145833,0,1 @ F,0,0,1,0,6.6145833,0,1 | F,0,0,1,0,6.6145833,0,1 @ F,0,0,1,0,6.6145833,0,1 @ F,0,0,1,0,6.6145833,0,1 @ F,0,0,1,0,6.6145833,0,1 | F,0,0,1,0,6.6145833,0,1 @ F,0,0,1,0,6.6145833,0,1 @ F,0,0,1,0,6.6145833,0,1 @ F,0,0,1,0,6.6145833,0,1 | F,0,0,1,0,6.6145833,0,1 @ F,0,0,1,0,6.6145833,0,1 @ F,0,0,1,0,6.6145833,0,1 @ F,0,0,1,0,6.6145833,0,1 | F,0,0,1,0,6.6145833,0,1 @ F,0,0,1,0,6.6145833,0,1 @ F,0,0,1,0,6.6145833,0,1 @ F,0,0,1,0,6.6145833,0,1 | F,0,0,1,0,6.6145833,0,1 @ F,0,0,1,0,6.6145833,0,1 @ F,0,0,1,0,6.6145833,0,1 @ F,0,0,1,0,6.6145833,0,1"
       unit="px"
       method="auto"
       mode="F"
       radius="25"
       chamfer_steps="1"
       flexible="false"
       use_knot_distance="true"
       apply_no_radius="true"
       apply_with_radius="true"
       only_selected="false"
       hide_knots="false" />
  </defs>
  <g
     inkscape:label="Layer 1"
     inkscape:groupmode="layer"
     id="layer1">
    <path
       id="rect5498-6"
       style="stroke-width:0.28112;fill:#83a598;fill-opacity:1"
       d="m 131.61458,75 h 1.77084 A 6.6145833,6.6145833 45 0 1 140,81.614583 V 113.38542 A 6.6145833,6.6145833 135 0 1 133.38542,120 h -1.77084 A 6.6145833,6.6145833 45 0 1 125,113.38542 V 81.614583 A 6.6145833,6.6145833 135 0 1 131.61458,75 Z m -64.999997,0 h 1.770834 A 6.6145833,6.6145833 45 0 1 75,81.614583 V 113.38542 A 6.6145833,6.6145833 135 0 1 68.385417,120 H 66.614583 A 6.6145833,6.6145833 45 0 1 60,113.38542 V 81.614583 A 6.6145833,6.6145833 135 0 1 66.614583,75 Z m 0,30 66.770837,0 A 6.6145833,6.6145833 45 0 1 140,111.61458 v 1.77084 A 6.6145833,6.6145833 135 0 1 133.38542,120 H 66.614583 A 6.6145833,6.6145833 45 0 1 60,113.38542 v -1.77084 A 6.6145833,6.6145833 135 0 1 66.614583,105 Z m 0,-30 H 133.38542 A 6.6145833,6.6145833 45 0 1 140,81.614583 v 1.770834 A 6.6145833,6.6145833 135 0 1 133.38542,90 H 66.614583 A 6.6145833,6.6145833 45 0 1 60,83.385417 V 81.614583 A 6.6145833,6.6145833 135 0 1 66.614583,75 Z m -45,110 H 178.38542 A 6.6145833,6.6145833 45 0 1 185,191.61458 v 1.77084 A 6.6145833,6.6145833 135 0 1 178.38542,200 H 21.614583 A 6.6145833,6.6145833 45 0 1 15,193.38542 v -1.77084 A 6.6145833,6.6145833 135 0 1 21.614583,185 Z M 176.61458,45 h 1.77084 A 6.6145833,6.6145833 45 0 1 185,51.614583 l 0,141.770837 A 6.6145833,6.6145833 135 0 1 178.38542,200 h -1.77084 A 6.6145833,6.6145833 45 0 1 170,193.38542 V 51.614583 A 6.6145833,6.6145833 135 0 1 176.61458,45 Z M 21.614583,45 h 1.770834 A 6.6145833,6.6145833 45 0 1 30,51.614583 L 30,193.38542 A 6.6145833,6.6145833 135 0 1 23.385417,200 H 21.614583 A 6.6145833,6.6145833 45 0 1 15,193.38542 L 15,51.614583 A 6.6145833,6.6145833 135 0 1 21.614583,45 Z M 191.61458,0 h 1.77084 A 6.6145833,6.6145833 45 0 1 200,6.6145833 V 53.385417 A 6.6145833,6.6145833 135 0 1 193.38542,60 h -1.77084 A 6.6145833,6.6145833 45 0 1 185,53.385417 V 6.6145833 A 6.6145833,6.6145833 135 0 1 191.61458,0 Z M 6.6145833,0 H 8.3854167 A 6.6145833,6.6145833 45 0 1 15,6.6145833 V 53.385417 A 6.6145833,6.6145833 135 0 1 8.3854167,60 H 6.6145833 A 6.6145833,6.6145833 45 0 1 0,53.385417 V 6.6145833 A 6.6145833,6.6145833 135 0 1 6.6145833,0 Z m 0,45 H 193.38542 A 6.6145833,6.6145833 45 0 1 200,51.614583 v 1.770834 A 6.6145833,6.6145833 135 0 1 193.38542,60 H 6.6145833 A 6.6145833,6.6145833 45 0 1 0,53.385417 V 51.614583 A 6.6145833,6.6145833 135 0 1 6.6145833,45 Z m 0,-45 H 193.38542 A 6.6145833,6.6145833 45 0 1 200,6.6145833 V 8.3854167 A 6.6145833,6.6145833 135 0 1 193.38542,15 H 6.6145833 A 6.6145833,6.6145833 45 0 1 0,8.3854167 V 6.6145833 A 6.6145833,6.6145833 135 0 1 6.6145833,0 Z"
       inkscape:path-effect="#path-effect36766"
       inkscape:original-d="m 125,75 h 15 v 45 h -15 z m -65,0 h 15 v 45 H 60 Z m 0,30 h 80 v 15 H 60 Z m 0,-30 h 80 V 90 H 60 Z M 15,185 h 170 v 15 H 15 Z M 170,45 h 15 V 200 H 170 Z M 15,45 H 30 V 200 H 15 Z M 185,0 h 15 V 60 H 185 Z M 0,0 H 15 V 60 H 0 Z M 0,45 H 200 V 60 H 0 Z M 0,0 H 200 V 15 H 0 Z" />
  </g>
</svg>
