<?xml version="1.0" encoding="UTF-8" standalone="no"?>
<!-- Created with Inkscape (http://www.inkscape.org/) -->

<svg
   width="200.0002mm"
   height="200.0002mm"
   viewBox="0 0 200.0002 200.0002"
   version="1.1"
   id="svg5"
   inkscape:version="1.2.2 (b0a8486541, 2022-12-01)"
   sodipodi:docname="chat.svg"
   inkscape:export-filename="chat.png"
   inkscape:export-xdpi="96"
   inkscape:export-ydpi="96"
   xmlns:inkscape="http://www.inkscape.org/namespaces/inkscape"
   xmlns:sodipodi="http://sodipodi.sourceforge.net/DTD/sodipodi-0.dtd"
   xmlns="http://www.w3.org/2000/svg"
   xmlns:svg="http://www.w3.org/2000/svg">
  <sodipodi:namedview
     id="namedview7"
     pagecolor="#505050"
     bordercolor="#eeeeee"
     borderopacity="1"
     inkscape:showpageshadow="0"
     inkscape:pageopacity="0"
     inkscape:pagecheckerboard="0"
     inkscape:deskcolor="#505050"
     inkscape:document-units="mm"
     showgrid="false"
     inkscape:zoom="0.77593294"
     inkscape:cx="362.1447"
     inkscape:cy="388.56451"
     inkscape:window-width="946"
     inkscape:window-height="1060"
     inkscape:window-x="963"
     inkscape:window-y="9"
     inkscape:window-maximized="1"
     inkscape:current-layer="layer1" />
  <defs
     id="defs2">
    <inkscape:path-effect
       effect="fillet_chamfer"
       id="path-effect4133"
       is_visible="true"
       lpeversion="1"
       nodesatellites_param="F,0,0,1,0,0,0,1 @ F,0,0,1,0,0,0,1 @ F,0,0,1,0,0,0,1 @ F,0,0,1,0,0,0,1"
       unit="px"
       method="auto"
       mode="F"
       radius="25"
       chamfer_steps="1"
       flexible="false"
       use_knot_distance="true"
       apply_no_radius="true"
       apply_with_radius="true"
       only_selected="false"
       hide_knots="false" />
    <inkscape:path-effect
       effect="fillet_chamfer"
       id="path-effect4131"
       is_visible="true"
       lpeversion="1"
       nodesatellites_param="F,0,0,1,0,6.6145833,0,1 @ F,0,0,1,0,6.6145833,0,1 @ F,0,0,1,0,6.6145833,0,1 @ F,0,0,1,0,6.6145833,0,1 @ F,0,0,1,0,6.6145833,0,1 @ F,0,0,1,0,6.6145833,0,1 @ F,0,0,1,0,6.6145833,0,1 @ F,0,0,1,0,6.6145833,0,1 @ F,0,0,1,0,6.6145833,0,1 @ F,0,0,1,0,6.6145833,0,1 @ F,0,0,1,0,6.6145833,0,1 @ F,0,0,1,0,6.6145833,0,1 @ F,0,0,1,0,6.6145833,0,1 @ F,0,0,1,0,6.6145833,0,1 @ F,0,0,1,0,6.6145833,0,1 @ F,0,0,1,0,6.6145833,0,1 @ F,0,0,1,0,6.6145833,0,1 | F,0,0,1,0,6.6145833,0,1 @ F,0,0,1,0,6.6145833,0,1 @ F,0,0,1,0,6.6145833,0,1 @ F,0,0,1,0,6.6145833,0,1 | F,0,0,1,0,6.6145833,0,1 @ F,0,0,1,0,6.6145833,0,1 @ F,0,0,1,0,6.6145833,0,1 @ F,0,0,1,0,6.6145833,0,1 | F,0,0,1,0,6.6145833,0,1 @ F,0,0,1,0,6.6145833,0,1 @ F,0,0,1,0,6.6145833,0,1 @ F,0,0,1,0,6.6145833,0,1"
       unit="px"
       method="auto"
       mode="F"
       radius="25"
       chamfer_steps="1"
       flexible="false"
       use_knot_distance="true"
       apply_no_radius="true"
       apply_with_radius="true"
       only_selected="false"
       hide_knots="false" />
  </defs>
  <g
     inkscape:label="Layer 1"
     inkscape:groupmode="layer"
     id="layer1">
    <path
       id="rect1566"
       style="fill:#d3869b;stroke-width:0.244372;fill-opacity:1"
       d="M 6.6145833,0 A 6.6145833,6.6145833 0 0 0 0,6.6145833 V 8.6278971 143.83773 159.0797 a 6.6145833,6.6145833 0 0 0 6.6145833,6.61458 H 120.36423 a 19.411876,19.411876 0 0 1 11.85302,4.03903 l 27.08465,20.88245 6.93188,5.34489 5.23896,4.03955 24.42125,-30.84722 4.10621,-5.18624 -5.23896,-4.03903 -3.05408,-2.3549 -3.87831,-2.99 -25.33851,-19.53679 A 13.452458,13.452458 0 0 1 157.2519,124.39241 V 6.6145833 A 6.6145833,6.6145833 0 0 0 150.63732,0 H 22.059635 Z M 22.059635,15.24248 H 135.19175 a 6.6145833,6.6145833 0 0 1 6.61458,6.614584 V 131.82658 a 13.452392,13.452392 0 0 0 5.23844,10.65361 l 31.27509,24.11378 -9.50898,12.01115 -31.27509,-24.11377 a 19.411922,19.411922 0 0 0 -11.85302,-4.03903 H 22.059635 a 6.6145833,6.6145833 0 0 1 -6.614583,-6.61459 V 21.857064 a 6.6145833,6.6145833 0 0 1 6.614583,-6.614584 z m 14.555184,23.989751 a 6.6145833,6.6145833 0 0 0 -6.614583,6.614583 v 1.770435 a 6.6145833,6.6145833 0 0 0 6.614583,6.614583 H 120.6376 a 6.6145833,6.6145833 0 0 0 6.61458,-6.614583 v -1.770435 a 6.6145833,6.6145833 0 0 0 -6.61458,-6.614583 z m 0,36.230863 a 6.6145833,6.6145833 0 0 0 -6.614583,6.614583 v 1.770952 a 6.6145833,6.6145833 0 0 0 6.614583,6.614583 H 120.6376 a 6.6145833,6.6145833 0 0 0 6.61458,-6.614583 v -1.770952 a 6.6145833,6.6145833 0 0 0 -6.61458,-6.614583 z m 0,36.231896 a 6.6145833,6.6145833 0 0 0 -6.614583,6.61458 v 1.77096 a 6.6145833,6.6145833 0 0 0 6.614583,6.61458 H 120.6376 a 6.6145833,6.6145833 0 0 0 6.61458,-6.61458 v -1.77096 a 6.6145833,6.6145833 0 0 0 -6.61458,-6.61458 z" />
  </g>
</svg>
