<?xml version="1.0" encoding="UTF-8" standalone="no"?>
<!-- Created with Inkscape (http://www.inkscape.org/) -->

<svg
   width="133.30516mm"
   height="135.93257mm"
   viewBox="0 0 133.30516 135.93257"
   version="1.1"
   id="svg5"
   inkscape:version="1.2.2 (b0a8486541, 2022-12-01)"
   sodipodi:docname="home.svg"
   inkscape:export-filename="home.png"
   inkscape:export-xdpi="96"
   inkscape:export-ydpi="96"
   xmlns:inkscape="http://www.inkscape.org/namespaces/inkscape"
   xmlns:sodipodi="http://sodipodi.sourceforge.net/DTD/sodipodi-0.dtd"
   xmlns="http://www.w3.org/2000/svg"
   xmlns:svg="http://www.w3.org/2000/svg">
  <sodipodi:namedview
     id="namedview7"
     pagecolor="#505050"
     bordercolor="#eeeeee"
     borderopacity="1"
     inkscape:showpageshadow="0"
     inkscape:pageopacity="0"
     inkscape:pagecheckerboard="0"
     inkscape:deskcolor="#505050"
     inkscape:document-units="mm"
     showgrid="false"
     showguides="true"
     inkscape:zoom="0.93593067"
     inkscape:cx="52.354305"
     inkscape:cy="278.33258"
     inkscape:window-width="946"
     inkscape:window-height="1060"
     inkscape:window-x="963"
     inkscape:window-y="9"
     inkscape:window-maximized="1"
     inkscape:current-layer="layer1" />
  <defs
     id="defs2">
    <inkscape:path-effect
       effect="fillet_chamfer"
       id="path-effect429"
       is_visible="true"
       lpeversion="1"
       nodesatellites_param="F,0,0,1,0,6.6145833,0,1 @ F,0,0,1,0,6.6145833,0,1 @ F,0,0,1,0,6.6145833,0,1 @ F,0,0,1,0,6.6145833,0,1 | F,0,0,1,0,6.6145833,0,1 @ F,0,0,1,0,6.6145833,0,1 @ F,0,0,1,0,6.6145833,0,1 @ F,0,0,1,0,6.6145833,0,1 | F,0,0,1,0,6.6145833,0,1 @ F,0,0,1,0,6.6145833,0,1 @ F,0,0,1,0,6.6145833,0,1 @ F,0,0,1,0,6.6145833,0,1 | F,0,0,1,0,6.6145833,0,1 @ F,0,0,1,0,6.6145833,0,1 @ F,0,0,1,0,6.6145833,0,1 @ F,0,0,1,0,6.6145833,0,1 | F,0,0,1,0,6.6145833,0,1 @ F,0,0,1,0,6.6145833,0,1 @ F,0,0,1,0,6.6145833,0,1 @ F,0,0,1,0,6.6145833,0,1 | F,0,0,1,0,6.6145833,0,1 @ F,0,0,1,0,6.6145833,0,1 @ F,0,0,1,0,6.6145833,0,1 @ F,0,0,1,0,6.6145833,0,1"
       unit="px"
       method="auto"
       mode="F"
       radius="25"
       chamfer_steps="1"
       flexible="false"
       use_knot_distance="true"
       apply_no_radius="true"
       apply_with_radius="true"
       only_selected="false"
       hide_knots="false" />
    <inkscape:path-effect
       effect="fillet_chamfer"
       id="path-effect115"
       is_visible="true"
       lpeversion="1"
       nodesatellites_param="F,0,0,1,0,0,0,1 @ F,0,0,1,0,0,0,1 @ F,0,0,1,0,0,0,1 @ F,0,0,1,0,0,0,1"
       unit="px"
       method="auto"
       mode="F"
       radius="50"
       chamfer_steps="1"
       flexible="false"
       use_knot_distance="true"
       apply_no_radius="true"
       apply_with_radius="true"
       only_selected="false"
       hide_knots="false" />
  </defs>
  <g
     inkscape:label="Layer 1"
     inkscape:groupmode="layer"
     id="layer1"
     transform="translate(-2.702424,-2.7774264)">
    <path
       id="rect386"
       style="fill:#b8bb26;fill-opacity:1;stroke-width:0.426302"
       d="m 61.25702,78.709999 h 16.195684 a 6.6145833,6.6145833 45 0 1 6.614583,6.614583 V 132.09542 A 6.6145833,6.6145833 135 0 1 77.452704,138.71 H 61.25702 a 6.6145833,6.6145833 45 0 1 -6.614583,-6.61458 V 85.324582 A 6.6145833,6.6145833 135 0 1 61.25702,78.709999 Z M 63.583438,5.8843394 64.723232,4.722266 a 6.4877707,6.4877707 180 0 1 9.263462,-1e-7 L 134.07827,65.988414 a 6.7438731,6.7438731 90.000005 0 1 0,9.444528 l -1.1398,1.162074 a 6.487772,6.487772 6.1417638e-6 0 1 -9.26346,-10e-7 L 63.583438,15.328869 a 6.7438748,6.7438748 90 0 1 0,-9.4445296 z m 10.403332,-1.162075 1.139794,1.1620732 a 6.7438745,6.7438745 90 0 1 0,9.4445284 L 15.034987,76.595018 a 6.4877705,6.4877705 1.1437293e-6 0 1 -9.2634616,-10e-7 L 4.6317306,75.432944 a 6.7438748,6.7438748 90.000001 0 1 3e-7,-9.444529 L 64.723308,4.7222644 a 6.4877709,6.4877709 180 0 1 9.263462,0 z m 35.04689,43.9877346 h 1.48327 a 6.6145833,6.6145833 45 0 1 6.61458,6.614583 l 0,76.770838 a 6.6145833,6.6145833 135 0 1 -6.61458,6.61458 h -1.48327 a 6.6145833,6.6145833 45 0 1 -6.61458,-6.61458 l 0,-76.770838 a 6.6145833,6.6145833 135 0 1 6.61458,-6.614583 z m 8.09784,81.614581 v 1.77084 a 6.6145833,6.6145833 135 0 1 -6.61458,6.61458 l -82.324113,0 a 6.6145833,6.6145833 45 0 1 -6.614583,-6.61458 v -1.77084 A 6.6145833,6.6145833 135 0 1 28.192807,123.71 h 82.324113 a 6.6145833,6.6145833 45 0 1 6.61458,6.61458 z M 28.192807,48.709999 h 1.483259 a 6.6145833,6.6145833 45 0 1 6.614583,6.614583 V 132.09542 A 6.6145833,6.6145833 135 0 1 29.676066,138.71 h -1.483259 a 6.6145833,6.6145833 45 0 1 -6.614583,-6.61458 l 0,-76.770838 a 6.6145833,6.6145833 135 0 1 6.614583,-6.614583 z"
       inkscape:path-effect="#path-effect429"
       inkscape:original-d="m 54.642437,78.709999 h 29.42485 V 138.71 H 54.642437 Z M 58.951707,10.606604 69.354963,1.4278343e-6 138.71,70.710678 128.30674,81.31728 Z M 69.355039,0 79.758295,10.606602 10.403256,81.317282 0,70.710679 Z m 33.064041,48.709999 h 14.71243 V 138.71 H 102.41908 Z M 117.1315,123.71 v 15 H 21.578224 v -15 z M 21.578224,48.709999 H 36.290649 V 138.71 H 21.578224 Z" />
  </g>
</svg>
