<?xml version="1.0" encoding="UTF-8" standalone="no"?>
<!-- Created with Inkscape (http://www.inkscape.org/) -->

<svg
   width="200.0002mm"
   height="197.26015mm"
   viewBox="0 0 200.0002 197.26015"
   version="1.1"
   id="svg5"
   inkscape:version="1.2.2 (b0a8486541, 2022-12-01)"
   sodipodi:docname="tv.svg"
   inkscape:export-filename="tv.png"
   inkscape:export-xdpi="96"
   inkscape:export-ydpi="96"
   xmlns:inkscape="http://www.inkscape.org/namespaces/inkscape"
   xmlns:sodipodi="http://sodipodi.sourceforge.net/DTD/sodipodi-0.dtd"
   xmlns="http://www.w3.org/2000/svg"
   xmlns:svg="http://www.w3.org/2000/svg">
  <sodipodi:namedview
     id="namedview7"
     pagecolor="#505050"
     bordercolor="#eeeeee"
     borderopacity="1"
     inkscape:showpageshadow="0"
     inkscape:pageopacity="0"
     inkscape:pagecheckerboard="0"
     inkscape:deskcolor="#505050"
     inkscape:document-units="mm"
     showgrid="false"
     inkscape:zoom="0.77593294"
     inkscape:cx="143.0536"
     inkscape:cy="451.71429"
     inkscape:window-width="946"
     inkscape:window-height="1060"
     inkscape:window-x="963"
     inkscape:window-y="9"
     inkscape:window-maximized="1"
     inkscape:current-layer="layer1" />
  <defs
     id="defs2">
    <inkscape:path-effect
       effect="fillet_chamfer"
       id="path-effect1956"
       is_visible="true"
       lpeversion="1"
       nodesatellites_param="F,0,0,1,0,3.3072917,0,1 @ F,0,0,1,0,3.3072917,0,1 @ F,0,0,1,0,3.3072917,0,1 @ F,0,0,1,0,3.3072917,0,1"
       unit="px"
       method="auto"
       mode="F"
       radius="12.5"
       chamfer_steps="1"
       flexible="false"
       use_knot_distance="true"
       apply_no_radius="true"
       apply_with_radius="true"
       only_selected="false"
       hide_knots="false" />
    <inkscape:path-effect
       effect="fillet_chamfer"
       id="path-effect1954"
       is_visible="true"
       lpeversion="1"
       nodesatellites_param="F,0,0,1,0,3.3072917,0,1 @ F,0,0,1,0,3.3072917,0,1 @ F,0,0,1,0,3.3072917,0,1 @ F,0,0,1,0,3.3072917,0,1"
       unit="px"
       method="auto"
       mode="F"
       radius="12.5"
       chamfer_steps="1"
       flexible="false"
       use_knot_distance="true"
       apply_no_radius="true"
       apply_with_radius="true"
       only_selected="false"
       hide_knots="false" />
    <inkscape:path-effect
       effect="fillet_chamfer"
       id="path-effect1952"
       is_visible="true"
       lpeversion="1"
       nodesatellites_param="F,0,0,1,0,3.3072917,0,1 @ F,0,0,1,0,3.3072917,0,1 @ F,0,0,1,0,3.3072917,0,1 @ F,0,0,1,0,3.3072917,0,1"
       unit="px"
       method="auto"
       mode="F"
       radius="12.5"
       chamfer_steps="1"
       flexible="false"
       use_knot_distance="true"
       apply_no_radius="true"
       apply_with_radius="true"
       only_selected="false"
       hide_knots="false" />
    <inkscape:path-effect
       effect="fillet_chamfer"
       id="path-effect1950"
       is_visible="true"
       lpeversion="1"
       nodesatellites_param="F,0,0,1,0,6.6145833,0,1 @ F,0,0,1,0,6.6145833,0,1 @ F,0,0,1,0,6.6145833,0,1 @ F,0,0,1,0,6.6145833,0,1"
       unit="px"
       method="auto"
       mode="F"
       radius="25"
       chamfer_steps="1"
       flexible="false"
       use_knot_distance="true"
       apply_no_radius="true"
       apply_with_radius="true"
       only_selected="false"
       hide_knots="false" />
    <inkscape:path-effect
       effect="fillet_chamfer"
       id="path-effect1948"
       is_visible="true"
       lpeversion="1"
       nodesatellites_param="F,0,0,1,0,6.6145833,0,1 @ F,0,0,1,0,6.6145833,0,1 @ F,0,0,1,0,6.6145833,0,1 @ F,0,0,1,0,6.6145833,0,1"
       unit="px"
       method="auto"
       mode="F"
       radius="25"
       chamfer_steps="1"
       flexible="false"
       use_knot_distance="true"
       apply_no_radius="true"
       apply_with_radius="true"
       only_selected="false"
       hide_knots="false" />
    <inkscape:path-effect
       effect="fillet_chamfer"
       id="path-effect1946"
       is_visible="true"
       lpeversion="1"
       nodesatellites_param="F,0,0,1,0,6.6145833,0,1 @ F,0,0,1,0,6.6145833,0,1 @ F,0,0,1,0,6.6145833,0,1 @ F,0,0,1,0,6.6145833,0,1"
       unit="px"
       method="auto"
       mode="F"
       radius="25"
       chamfer_steps="1"
       flexible="false"
       use_knot_distance="true"
       apply_no_radius="true"
       apply_with_radius="true"
       only_selected="false"
       hide_knots="false" />
    <inkscape:path-effect
       effect="fillet_chamfer"
       id="path-effect1944"
       is_visible="true"
       lpeversion="1"
       nodesatellites_param="F,0,0,1,0,6.6145833,0,1 @ F,0,0,1,0,6.6145833,0,1 @ F,0,0,1,0,6.6145833,0,1 @ F,0,0,1,0,6.6145833,0,1"
       unit="px"
       method="auto"
       mode="F"
       radius="25"
       chamfer_steps="1"
       flexible="false"
       use_knot_distance="true"
       apply_no_radius="true"
       apply_with_radius="true"
       only_selected="false"
       hide_knots="false" />
    <inkscape:path-effect
       effect="fillet_chamfer"
       id="path-effect1942"
       is_visible="true"
       lpeversion="1"
       nodesatellites_param="F,0,0,1,0,6.6145833,0,1 @ F,0,0,1,0,6.6145833,0,1 @ F,0,0,1,0,6.6145833,0,1 @ F,0,0,1,0,6.6145833,0,1"
       unit="px"
       method="auto"
       mode="F"
       radius="25"
       chamfer_steps="1"
       flexible="false"
       use_knot_distance="true"
       apply_no_radius="true"
       apply_with_radius="true"
       only_selected="false"
       hide_knots="false" />
    <inkscape:path-effect
       effect="fillet_chamfer"
       id="path-effect1940"
       is_visible="true"
       lpeversion="1"
       nodesatellites_param="F,0,0,1,0,6.6145833,0,1 @ F,0,0,1,0,6.6145833,0,1 @ F,0,0,1,0,6.6145833,0,1 @ F,0,0,1,0,6.6145833,0,1"
       unit="px"
       method="auto"
       mode="F"
       radius="25"
       chamfer_steps="1"
       flexible="false"
       use_knot_distance="true"
       apply_no_radius="true"
       apply_with_radius="true"
       only_selected="false"
       hide_knots="false" />
    <inkscape:path-effect
       effect="fillet_chamfer"
       id="path-effect1938"
       is_visible="true"
       lpeversion="1"
       nodesatellites_param="F,0,0,1,0,6.6145833,0,1 @ F,0,0,1,0,6.6145833,0,1 @ F,0,0,1,0,6.6145833,0,1 @ F,0,0,1,0,6.6145833,0,1"
       unit="px"
       method="auto"
       mode="F"
       radius="25"
       chamfer_steps="1"
       flexible="false"
       use_knot_distance="true"
       apply_no_radius="true"
       apply_with_radius="true"
       only_selected="false"
       hide_knots="false" />
    <inkscape:path-effect
       effect="fillet_chamfer"
       id="path-effect1936"
       is_visible="true"
       lpeversion="1"
       nodesatellites_param="F,0,0,1,0,6.6145833,0,1 @ F,0,0,1,0,6.6145833,0,1 @ F,0,0,1,0,6.6145833,0,1 @ F,0,0,1,0,6.6145833,0,1"
       unit="px"
       method="auto"
       mode="F"
       radius="25"
       chamfer_steps="1"
       flexible="false"
       use_knot_distance="true"
       apply_no_radius="true"
       apply_with_radius="true"
       only_selected="false"
       hide_knots="false" />
    <inkscape:path-effect
       effect="fillet_chamfer"
       id="path-effect1934"
       is_visible="true"
       lpeversion="1"
       nodesatellites_param="F,0,0,1,0,6.6145833,0,1 @ F,0,0,1,0,6.6145833,0,1 @ F,0,0,1,0,6.6145833,0,1 @ F,0,0,1,0,6.6145833,0,1 @ F,0,0,1,0,6.6145833,0,1 @ F,0,0,1,0,6.6145833,0,1 @ F,0,0,1,0,6.6145833,0,1 @ F,0,0,1,0,6.6145833,0,1 @ F,0,0,1,0,6.6145833,0,1 @ F,0,0,1,0,6.6145833,0,1 @ F,0,0,1,0,6.6145833,0,1"
       unit="px"
       method="auto"
       mode="F"
       radius="25"
       chamfer_steps="1"
       flexible="false"
       use_knot_distance="true"
       apply_no_radius="true"
       apply_with_radius="true"
       only_selected="false"
       hide_knots="false" />
    <inkscape:path-effect
       effect="fillet_chamfer"
       id="path-effect1915"
       is_visible="true"
       lpeversion="1"
       nodesatellites_param="F,0,0,1,0,6.6145833,0,1 @ F,0,0,1,0,6.6145833,0,1 @ F,0,0,1,0,6.6145833,0,1 @ F,0,0,1,0,6.6145833,0,1"
       unit="px"
       method="auto"
       mode="F"
       radius="25"
       chamfer_steps="1"
       flexible="false"
       use_knot_distance="true"
       apply_no_radius="true"
       apply_with_radius="true"
       only_selected="false"
       hide_knots="false" />
    <inkscape:path-effect
       effect="fillet_chamfer"
       id="path-effect1834"
       is_visible="true"
       lpeversion="1"
       nodesatellites_param="F,0,0,1,0,6.6145833,0,1 @ F,0,0,1,0,6.6145833,0,1 @ F,0,0,1,0,6.6145833,0,1 @ F,0,0,1,0,6.6145833,0,1"
       unit="px"
       method="auto"
       mode="F"
       radius="25"
       chamfer_steps="1"
       flexible="false"
       use_knot_distance="true"
       apply_no_radius="true"
       apply_with_radius="true"
       only_selected="false"
       hide_knots="false" />
  </defs>
  <g
     inkscape:label="Layer 1"
     inkscape:groupmode="layer"
     id="layer1"
     transform="translate(0,-2.7398501)">
    <path
       id="rect840"
       style="fill:#fabd2f;fill-opacity:1;stroke-width:0.263291"
       d="m 105.71058,-99.095997 v 56.751498 a 6.6145833,6.6145833 135 0 1 -6.614583,6.614583 H 66.495016 a 6.6145833,6.6145833 135 0 0 -6.614583,6.614583 v 1.770814 a 6.6145833,6.6145833 45 0 0 6.614583,6.614583 h 26.816579 a 2.7398501,2.7398501 67.5 0 1 1.937366,4.677217 L 44.275338,34.920904 a 6.6145833,6.6145833 90 0 0 0,9.354434 l 1.251885,1.251885 a 6.6145832,6.6145832 180 0 0 9.354434,0 L 186.94871,-86.539837 a 6.6145853,6.6145853 90.000008 0 0 0,-9.354435 l -1.25187,-1.25188 a 6.6145819,6.6145819 1.000314e-5 0 0 -9.35444,-2e-6 l -50.95462,50.95462 a 2.7398504,2.7398504 22.500002 0 1 -4.67722,-1.937367 v -50.967096 a 6.6145833,6.6145833 45 0 0 -6.61458,-6.614583 h -1.77082 a 6.6145833,6.6145833 135 0 0 -6.61458,6.614583 z"
       transform="rotate(45)"
       inkscape:path-effect="#path-effect1934"
       inkscape:original-d="m 105.71058,-105.71058 v 69.980664 H 59.880433 v 14.99998 H 99.926178 L 39.598121,39.598121 50.20444,50.20444 191.62593,-91.217054 181.01962,-101.82337 120.71056,-41.514318 v -64.196262 z" />
    <path
       style="fill:#fabd2f;fill-opacity:1;stroke-width:0.242551"
       id="rect1727-3"
       width="200"
       height="15"
       x="0"
       y="185"
       inkscape:path-effect="#path-effect1936"
       d="M 6.6145833,185 H 193.38542 A 6.6145833,6.6145833 45 0 1 200,191.61458 v 1.77084 A 6.6145833,6.6145833 135 0 1 193.38542,200 H 6.6145833 A 6.6145833,6.6145833 45 0 1 0,193.38542 v -1.77084 A 6.6145833,6.6145833 135 0 1 6.6145833,185 Z"
       sodipodi:type="rect" />
    <path
       style="fill:#fabd2f;fill-opacity:1;stroke-width:0.395019"
       id="rect1751"
       width="15"
       height="144"
       x="0"
       y="56"
       inkscape:path-effect="#path-effect1938"
       d="M 6.6145833,56 H 8.3854167 A 6.6145833,6.6145833 45 0 1 15,62.614583 V 193.38542 A 6.6145833,6.6145833 135 0 1 8.3854167,200 H 6.6145833 A 6.6145833,6.6145833 45 0 1 0,193.38542 V 62.614583 A 6.6145833,6.6145833 135 0 1 6.6145833,56 Z"
       sodipodi:type="rect" />
    <path
       style="fill:#fabd2f;fill-opacity:1;stroke-width:0.395019"
       id="rect1751-6"
       width="15"
       height="144"
       x="185"
       y="56"
       inkscape:path-effect="#path-effect1915"
       d="m 191.61458,56 h 1.77084 A 6.6145833,6.6145833 45 0 1 200,62.614583 V 193.38542 A 6.6145833,6.6145833 135 0 1 193.38542,200 h -1.77084 A 6.6145833,6.6145833 45 0 1 185,193.38542 V 62.614583 A 6.6145833,6.6145833 135 0 1 191.61458,56 Z"
       sodipodi:type="rect" />
    <path
       style="fill:#fabd2f;fill-opacity:1;stroke-width:0.248566"
       id="rect1775"
       width="15"
       height="84"
       x="30"
       y="86"
       inkscape:path-effect="#path-effect1946"
       d="m 36.614583,86 h 1.770834 A 6.6145833,6.6145833 45 0 1 45,92.614583 V 163.38542 A 6.6145833,6.6145833 135 0 1 38.385417,170 H 36.614583 A 6.6145833,6.6145833 45 0 1 30,163.38542 V 92.614583 A 6.6145833,6.6145833 135 0 1 36.614583,86 Z"
       sodipodi:type="rect" />
    <path
       style="fill:#fabd2f;fill-opacity:1;stroke-width:0.248566"
       id="rect1775-7"
       width="15"
       height="84"
       x="125"
       y="86"
       inkscape:path-effect="#path-effect1942"
       d="m 131.61458,86 h 1.77084 A 6.6145833,6.6145833 45 0 1 140,92.614583 V 163.38542 A 6.6145833,6.6145833 135 0 1 133.38542,170 h -1.77084 A 6.6145833,6.6145833 45 0 1 125,163.38542 V 92.614583 A 6.6145833,6.6145833 135 0 1 131.61458,86 Z"
       sodipodi:type="rect" />
    <path
       style="fill:#fabd2f;fill-opacity:1;stroke-width:0.413181"
       id="rect1808"
       width="110"
       height="15"
       x="30"
       y="86"
       inkscape:path-effect="#path-effect1940"
       d="M 36.614583,86 H 133.38542 A 6.6145833,6.6145833 45 0 1 140,92.614583 v 1.770834 A 6.6145833,6.6145833 135 0 1 133.38542,101 l -96.770837,0 A 6.6145833,6.6145833 45 0 1 30,94.385417 V 92.614583 A 6.6145833,6.6145833 135 0 1 36.614583,86 Z"
       sodipodi:type="rect" />
    <path
       style="fill:#fabd2f;fill-opacity:1;stroke-width:0.413181"
       id="rect1808-5"
       width="110"
       height="15"
       x="30"
       y="155"
       inkscape:path-effect="#path-effect1944"
       d="M 36.614583,155 H 133.38542 A 6.6145833,6.6145833 45 0 1 140,161.61458 v 1.77084 A 6.6145833,6.6145833 135 0 1 133.38542,170 H 36.614583 A 6.6145833,6.6145833 45 0 1 30,163.38542 v -1.77084 A 6.6145833,6.6145833 135 0 1 36.614583,155 Z"
       sodipodi:type="rect" />
    <path
       style="fill:#fabd2f;fill-opacity:1;stroke-width:0.205766"
       id="rect1836"
       width="15"
       height="15"
       x="155"
       y="86"
       inkscape:path-effect="#path-effect1948"
       d="m 161.61458,86 h 1.77084 A 6.6145833,6.6145833 45 0 1 170,92.614583 v 1.770834 A 6.6145833,6.6145833 135 0 1 163.38542,101 h -1.77084 A 6.6145833,6.6145833 45 0 1 155,94.385417 V 92.614583 A 6.6145833,6.6145833 135 0 1 161.61458,86 Z"
       sodipodi:type="rect" />
    <path
       style="fill:#fabd2f;fill-opacity:1;stroke-width:0.205766"
       id="rect1836-3"
       width="15"
       height="15"
       x="155"
       y="116"
       inkscape:path-effect="#path-effect1950"
       d="m 161.61458,116 h 1.77084 A 6.6145833,6.6145833 45 0 1 170,122.61458 v 1.77084 A 6.6145833,6.6145833 135 0 1 163.38542,131 h -1.77084 A 6.6145833,6.6145833 45 0 1 155,124.38542 v -1.77084 A 6.6145833,6.6145833 135 0 1 161.61458,116 Z"
       sodipodi:type="rect" />
    <path
       style="fill:#fabd2f;fill-opacity:1;stroke-width:0.247103"
       id="rect1860"
       width="24.983984"
       height="7.5"
       x="150.16647"
       y="140"
       inkscape:path-effect="#path-effect1952"
       d="m 153.47377,140 h 18.3694 a 3.3072917,3.3072917 45 0 1 3.30729,3.30729 v 0.88542 A 3.3072917,3.3072917 135 0 1 171.84317,147.5 h -18.3694 a 3.3072917,3.3072917 45 0 1 -3.3073,-3.30729 v -0.88542 A 3.3072917,3.3072917 135 0 1 153.47377,140 Z"
       sodipodi:type="rect" />
    <path
       style="fill:#fabd2f;fill-opacity:1;stroke-width:0.247103"
       id="rect1860-5"
       width="24.983984"
       height="7.5"
       x="150.39465"
       y="151.25"
       inkscape:path-effect="#path-effect1954"
       d="m 153.70195,151.25 h 18.3694 a 3.3072917,3.3072917 45 0 1 3.30729,3.30729 v 0.88542 a 3.3072917,3.3072917 135 0 1 -3.30729,3.30729 h -18.3694 a 3.3072917,3.3072917 45 0 1 -3.3073,-3.30729 v -0.88542 a 3.3072917,3.3072917 135 0 1 3.3073,-3.30729 z"
       sodipodi:type="rect" />
    <path
       style="fill:#fabd2f;fill-opacity:1;stroke-width:0.247103"
       id="rect1860-6"
       width="24.983984"
       height="7.5"
       x="150.60095"
       y="162.5"
       inkscape:path-effect="#path-effect1956"
       d="m 153.90824,162.5 h 18.3694 a 3.3072917,3.3072917 45 0 1 3.3073,3.30729 v 0.88542 A 3.3072917,3.3072917 135 0 1 172.27764,170 h -18.3694 a 3.3072917,3.3072917 45 0 1 -3.30729,-3.30729 v -0.88542 A 3.3072917,3.3072917 135 0 1 153.90824,162.5 Z"
       sodipodi:type="rect" />
  </g>
</svg>
